<svg id="Capa_1" enable-background="new 0 0 510 510" height="512" viewBox="0 0 510 510" width="512" xmlns="http://www.w3.org/2000/svg" xmlns:xlink="http://www.w3.org/1999/xlink"><linearGradient id="lg1"><stop offset="0" stop-color="#9cf8d2"/><stop offset=".7542" stop-color="#00c285"/><stop offset="1" stop-color="#006e66"/></linearGradient><linearGradient id="SVGID_1_" gradientUnits="userSpaceOnUse" x1="190.12" x2="339.059" xlink:href="#lg1" y1="74.395" y2="74.395"/><linearGradient id="SVGID_2_" gradientUnits="userSpaceOnUse" x1="168" x2="321.31" xlink:href="#lg1" y1="115.531" y2="115.531"/><linearGradient id="SVGID_3_" gradientUnits="userSpaceOnUse" x1="168" x2="321.31" xlink:href="#lg1" y1="41.138" y2="41.138"/><linearGradient id="SVGID_4_" gradientUnits="userSpaceOnUse" x1="26.36" x2="417.643" y1="296.945" y2="296.945"><stop offset="0" stop-color="#ffe177"/><stop offset="1" stop-color="#fd6930"/></linearGradient><linearGradient id="SVGID_5_" gradientUnits="userSpaceOnUse" x1="240.36" x2="406.64" y1="296.946" y2="296.946"><stop offset="0" stop-color="#fea95c"/><stop offset="1" stop-color="#f46700"/></linearGradient><linearGradient id="lg2"><stop offset="0" stop-color="#fff3de"/><stop offset=".593" stop-color="#ffd15b"/><stop offset="1" stop-color="#fe7d43"/></linearGradient><linearGradient id="SVGID_6_" gradientUnits="userSpaceOnUse" x1="123.496" x2="386.504" xlink:href="#lg2" y1="296.945" y2="296.945"/><linearGradient id="SVGID_7_" gradientUnits="userSpaceOnUse" x1="97.125" x2="355.726" xlink:href="#lg2" y1="296.945" y2="296.945"/><linearGradient id="lg3"><stop offset="0" stop-color="#d4f2f6"/><stop offset=".6075" stop-color="#02c7dd"/><stop offset="1" stop-color="#0290cf"/></linearGradient><linearGradient id="SVGID_8_" gradientUnits="userSpaceOnUse" x1="0" x2="510" xlink:href="#lg3" y1="419.108" y2="419.108"/><linearGradient id="SVGID_9_" gradientUnits="userSpaceOnUse" x1="-86" x2="412.231" xlink:href="#lg3" y1="424.304" y2="424.304"/><g><path d="m200.177 82.271h25.454v66.519h58.739v-66.519h25.454c9.969 0 15.366-11.672 8.907-19.264l-47.04-55.293c-8.75-10.285-24.633-10.285-33.383 0l-47.038 55.293c-6.459 7.592-1.062 19.264 8.907 19.264z" fill="url(#SVGID_1_)"/><g><path d="m259.358 95.045v53.745h25.011v-66.519h-12.237c-7.055 0-12.774 5.719-12.774 12.774z" fill="url(#SVGID_2_)"/><path d="m318.73 63.007-47.039-55.293c-7.49-8.804-20.202-10.065-29.197-3.797 1.514 1.055 2.926 2.316 4.186 3.797l47.039 55.293c6.459 7.592 1.062 19.264-8.907 19.264h25.011c9.969 0 15.366-11.672 8.907-19.264z" fill="url(#SVGID_3_)"/></g><g><path d="m445.058 312.535-.116.141c-19.173 23.333-28.827 53.047-27.027 83.193l.01.176c.699 11.713-6.986 22.284-18.344 25.232l-.068.018c-29.303 7.605-54.639 26.023-70.915 51.549l-.02.031c-6.317 9.907-18.767 13.951-29.7 9.648h-.001c-28.199-11.1-59.557-11.1-87.757 0-10.933 4.304-23.383.26-29.7-9.648l-.021-.032c-16.276-25.526-41.612-43.943-70.914-51.548l-.069-.018c-11.358-2.948-19.043-13.519-18.344-25.232l.01-.175c1.8-30.146-7.853-59.86-27.027-83.193l-.116-.142c-7.445-9.06-7.445-22.12 0-31.18l.116-.141c19.173-23.333 28.827-53.047 27.027-83.193l-.011-.176c-.699-11.713 6.986-22.284 18.344-25.232l.068-.018c29.303-7.605 54.639-26.023 70.915-51.549l.02-.031c6.317-9.907 18.767-13.951 29.7-9.648h.001c28.199 11.1 59.557 11.1 87.756 0 10.933-4.304 23.383-.26 29.7 9.648l.021.032c16.276 25.526 41.612 43.943 70.914 51.548l.069.018c11.358 2.948 19.043 13.519 18.344 25.232l-.01.175c-1.8 30.146 7.853 59.86 27.027 83.193l.116.142c7.447 9.06 7.447 22.12.002 31.18z" fill="url(#SVGID_4_)"/><path d="m445.06 312.53-.12.15c-19.17 23.33-28.82 53.04-27.03 83.19l.02.18c.69 11.71-6.99 22.28-18.35 25.23l-.07.02c-29.3 7.6-54.64 26.02-70.91 51.54l-.02.04c-6.32 9.9-18.77 13.95-29.7 9.64-4.76-1.87-9.61-3.43-14.52-4.66 1.59-1.44 3-3.1 4.2-4.98l.02-.04c16.27-25.52 41.61-43.94 70.91-51.54l.07-.02c11.36-2.95 19.04-13.52 18.35-25.23l-.02-.18c-1.79-30.15 7.86-59.86 27.03-83.19l.12-.15c7.44-9.06 7.44-22.12 0-31.18l-.12-.14c-19.17-23.33-28.82-53.04-27.03-83.19l.02-.18c.69-11.71-6.99-22.28-18.35-25.23l-.07-.02c-29.3-7.6-54.64-26.02-70.91-51.54l-.02-.04c-1.2-1.88-2.61-3.54-4.2-4.98 4.91-1.23 9.76-2.79 14.52-4.66 2.94-1.16 5.98-1.71 8.99-1.71 8.19 0 16.09 4.11 20.71 11.35l.02.04c16.27 25.52 41.61 43.94 70.91 51.54l.07.02c11.36 2.95 19.04 13.52 18.35 25.23l-.02.18c-1.79 30.15 7.86 59.86 27.03 83.19l.12.14c7.44 9.06 7.44 22.12 0 31.18z" fill="url(#SVGID_5_)"/><g><circle cx="255" cy="296.945" fill="url(#SVGID_6_)" r="131.504"/></g><path d="m255 165.441c-6.803 0-13.485.517-20.01 1.513 63.131 9.638 111.494 64.166 111.494 129.991s-48.363 120.353-111.494 129.991c6.525.996 13.207 1.513 20.01 1.513 72.628 0 131.504-58.876 131.504-131.504s-58.876-131.504-131.504-131.504z" fill="url(#SVGID_7_)"/></g><path d="m45.521 345.646c10.37 9.303 26.082 9.303 36.452 0l.003-.002c25.9-23.234 65.141-23.233 91.04.001 10.37 9.303 26.083 9.303 36.453 0l.001-.001c25.899-23.234 65.14-23.234 91.04-.001l.003.003c10.37 9.303 26.082 9.302 36.452 0l.005-.005c25.898-23.233 65.137-23.234 91.036-.003l.012.011c10.37 9.301 26.08 9.301 36.45 0l.013-.011c17.575-15.764 45.519-3.29 45.519 20.319v113.857c0 16.671-13.515 30.186-30.186 30.186h-449.628c-16.671 0-30.186-13.515-30.186-30.186v-113.851c0-23.61 27.946-36.083 45.521-20.317z" fill="url(#SVGID_8_)"/><g><path d="m464.474 345.644-.006.005c-.616.552-1.253 1.066-1.904 1.553 4.512 4.721 7.416 11.156 7.416 18.754v28.661c0 4.555-2.048 8.815-5.445 11.849-.018.016-.036.032-.054.048l-.013.011c-10.376 9.313-26.105 9.305-36.471-.02l-.102-.092c-25.86-23.261-65.118-23.217-90.925.103l-.005.005c-10.236 9.249-25.777 9.364-36.149.266l-.307-.269c-26.175-22.961-65.353-22.832-91.376.3l-.831.739c-10.182 9.051-25.654 8.596-35.286-1.037-24.225-24.225-63.191-25.199-88.595-2.214l-3.427 3.1c-10.172 9.203-25.774 8.813-35.473-.886-16.798-16.795-45.521-4.898-45.521 18.858v54.436c0 16.671 13.515 30.186 30.186 30.186h409.608 40.02c16.671 0 30.186-13.515 30.186-30.186v-113.857c0-23.614-27.953-36.086-45.526-20.313z" fill="url(#SVGID_9_)"/></g></g></svg>